# xmcd
#
# Track frame offsets: 
#        150
#        21074
#        56543
#        74162
#        108043
#        129237
#        157406
#        182421
#        206578
#        227861
#        257576
#        275308
#        308025
#
# Disc length: 4497 seconds
#
# Revision: 0
# Processed by: cddbd v1.5.2PL0 Copyright (c) Steve Scherf et al.
# Submitted via: ExactAudioCopy v1.0b4
#
DISCID=b2118f0d
DTITLE=Various Artist - Classic Chicago Blues - Live And Unreleased
DYEAR=2016
DGENRE=Blues
TTITLE0=I'm Good - Bonnie Lee
TTITLE1=You Better Watch Yourself - Nick Holt
TTITLE2=Tryin' To Make A Livin' - Bonnie Lee
TTITLE3=As The Years Go Passing By - Nick Holt
TTITLE4=Wee Baby Blues - Bonnie Lee
TTITLE5=Rock Me Baby - Bonnie Lee
TTITLE6=Come On Baby, Help Me Spend This Gold - Earl Howell
TTITLE7=The Town I Live In - Nick Holt
TTITLE8=Baby What You Want Me To Do - Bonnie Lee
TTITLE9=Strange Things Happening - One Room Country Shack - Nick Holt
TTITLE10=If It's Too Late - Nick Holt
TTITLE11=I Cried Like A Baby - Eric Howell
TTITLE12=Baby Don't Say That No More - Eric Howell
EXTD=
EXTT0=
EXTT1=
EXTT2=
EXTT3=
EXTT4=
EXTT5=
EXTT6=
EXTT7=
EXTT8=
EXTT9=
EXTT10=
EXTT11=
EXTT12=
PLAYORDER=
